<mxfile host="Electron" modified="2023-07-28T08:02:09.664Z" agent="Mozilla/5.0 (Windows NT 10.0; Win64; x64) AppleWebKit/537.36 (KHTML, like Gecko) draw.io/21.5.0 Chrome/112.0.5615.204 Electron/24.5.1 Safari/537.36" etag="XcJtayRO3E_zhUsLqdGj" version="21.5.0" type="device">
  <diagram name="第 1 页" id="3L1T4siGa3OV537WXqqt">
    <mxGraphModel dx="964" dy="769" grid="1" gridSize="10" guides="1" tooltips="1" connect="1" arrows="1" fold="1" page="1" pageScale="1" pageWidth="1169" pageHeight="827" math="0" shadow="0">
      <root>
        <mxCell id="0" />
        <mxCell id="1" parent="0" />
        <mxCell id="I3xKFYTj0F-n865Hq9HS-1" value="" style="endArrow=classic;html=1;rounded=0;entryX=-0.006;entryY=0.233;entryDx=0;entryDy=0;entryPerimeter=0;" parent="1" target="I3xKFYTj0F-n865Hq9HS-9" edge="1">
          <mxGeometry width="50" height="50" relative="1" as="geometry">
            <mxPoint x="420" y="250" as="sourcePoint" />
            <mxPoint x="540" y="150.29000000000002" as="targetPoint" />
            <Array as="points">
              <mxPoint x="420" y="110" />
            </Array>
          </mxGeometry>
        </mxCell>
        <mxCell id="I3xKFYTj0F-n865Hq9HS-3" value="&lt;font style=&quot;font-size: 11px;&quot;&gt;req_pc_i[31:0]&lt;/font&gt;" style="text;strokeColor=none;align=center;fillColor=none;html=1;verticalAlign=middle;whiteSpace=wrap;rounded=0;" parent="1" vertex="1">
          <mxGeometry x="452" y="237" width="80" height="10" as="geometry" />
        </mxCell>
        <mxCell id="I3xKFYTj0F-n865Hq9HS-4" value="D" style="rounded=1;whiteSpace=wrap;html=1;" parent="1" vertex="1">
          <mxGeometry x="540" y="220" width="80" height="60" as="geometry" />
        </mxCell>
        <mxCell id="I3xKFYTj0F-n865Hq9HS-8" value="" style="endArrow=classic;html=1;rounded=0;strokeWidth=2;" parent="1" edge="1">
          <mxGeometry width="50" height="50" relative="1" as="geometry">
            <mxPoint x="70" y="250" as="sourcePoint" />
            <mxPoint x="540" y="250" as="targetPoint" />
            <Array as="points" />
          </mxGeometry>
        </mxCell>
        <mxCell id="I3xKFYTj0F-n865Hq9HS-9" value="TAG&lt;br&gt;RAM0&lt;br&gt;20bit*256" style="rounded=1;whiteSpace=wrap;html=1;" parent="1" vertex="1">
          <mxGeometry x="540" y="79" width="80" height="130" as="geometry" />
        </mxCell>
        <mxCell id="I3xKFYTj0F-n865Hq9HS-10" value="&lt;font style=&quot;font-size: 11px;&quot;&gt;tag_addr_r[7:0]&lt;/font&gt;" style="text;strokeColor=none;align=center;fillColor=none;html=1;verticalAlign=middle;whiteSpace=wrap;rounded=0;" parent="1" vertex="1">
          <mxGeometry x="450" y="96.28999999999999" width="80" height="10" as="geometry" />
        </mxCell>
        <mxCell id="I3xKFYTj0F-n865Hq9HS-11" value="" style="endArrow=classic;html=1;rounded=0;entryX=0;entryY=0.306;entryDx=0;entryDy=0;entryPerimeter=0;" parent="1" target="I3xKFYTj0F-n865Hq9HS-13" edge="1">
          <mxGeometry width="50" height="50" relative="1" as="geometry">
            <mxPoint x="420" y="250" as="sourcePoint" />
            <mxPoint x="540" y="350" as="targetPoint" />
            <Array as="points">
              <mxPoint x="420" y="330" />
            </Array>
          </mxGeometry>
        </mxCell>
        <mxCell id="I3xKFYTj0F-n865Hq9HS-12" value="&lt;font style=&quot;font-size: 11px;&quot;&gt;tag_addr_r[7:0]&lt;/font&gt;" style="text;strokeColor=none;align=center;fillColor=none;html=1;verticalAlign=middle;whiteSpace=wrap;rounded=0;" parent="1" vertex="1">
          <mxGeometry x="452" y="317" width="80" height="10" as="geometry" />
        </mxCell>
        <mxCell id="I3xKFYTj0F-n865Hq9HS-13" value="TAG&lt;br&gt;RAM1&lt;br&gt;20bit*256" style="rounded=1;whiteSpace=wrap;html=1;" parent="1" vertex="1">
          <mxGeometry x="540" y="290" width="80" height="130" as="geometry" />
        </mxCell>
        <mxCell id="I3xKFYTj0F-n865Hq9HS-14" value="" style="endArrow=classic;html=1;rounded=0;entryX=0;entryY=0.5;entryDx=0;entryDy=0;" parent="1" target="I3xKFYTj0F-n865Hq9HS-18" edge="1">
          <mxGeometry width="50" height="50" relative="1" as="geometry">
            <mxPoint x="620" y="142" as="sourcePoint" />
            <mxPoint x="760" y="142" as="targetPoint" />
          </mxGeometry>
        </mxCell>
        <mxCell id="I3xKFYTj0F-n865Hq9HS-15" value="" style="endArrow=classic;html=1;rounded=0;entryX=0;entryY=0.5;entryDx=0;entryDy=0;" parent="1" target="I3xKFYTj0F-n865Hq9HS-19" edge="1">
          <mxGeometry width="50" height="50" relative="1" as="geometry">
            <mxPoint x="620" y="352.78999999999996" as="sourcePoint" />
            <mxPoint x="760" y="353" as="targetPoint" />
          </mxGeometry>
        </mxCell>
        <mxCell id="I3xKFYTj0F-n865Hq9HS-16" value="&lt;font style=&quot;font-size: 11px;&quot;&gt;tag0_addr_bits_w[18:0]&lt;/font&gt;" style="text;strokeColor=none;align=center;fillColor=none;html=1;verticalAlign=middle;whiteSpace=wrap;rounded=0;" parent="1" vertex="1">
          <mxGeometry x="631" y="129" width="110" height="10" as="geometry" />
        </mxCell>
        <mxCell id="I3xKFYTj0F-n865Hq9HS-17" value="&lt;font style=&quot;font-size: 11px;&quot;&gt;tag1_data_out_w[19:0]&lt;/font&gt;" style="text;strokeColor=none;align=center;fillColor=none;html=1;verticalAlign=middle;whiteSpace=wrap;rounded=0;" parent="1" vertex="1">
          <mxGeometry x="630" y="340" width="110" height="10" as="geometry" />
        </mxCell>
        <mxCell id="I3xKFYTj0F-n865Hq9HS-18" value="=" style="ellipse;whiteSpace=wrap;html=1;aspect=fixed;" parent="1" vertex="1">
          <mxGeometry x="765" y="127" width="30" height="30" as="geometry" />
        </mxCell>
        <mxCell id="I3xKFYTj0F-n865Hq9HS-19" value="=" style="ellipse;whiteSpace=wrap;html=1;aspect=fixed;" parent="1" vertex="1">
          <mxGeometry x="765" y="338" width="30" height="30" as="geometry" />
        </mxCell>
        <mxCell id="I3xKFYTj0F-n865Hq9HS-20" value="" style="endArrow=classic;html=1;rounded=0;entryX=0.5;entryY=1;entryDx=0;entryDy=0;" parent="1" target="I3xKFYTj0F-n865Hq9HS-18" edge="1">
          <mxGeometry width="50" height="50" relative="1" as="geometry">
            <mxPoint x="620" y="250" as="sourcePoint" />
            <mxPoint x="780" y="177" as="targetPoint" />
            <Array as="points">
              <mxPoint x="780" y="250" />
            </Array>
          </mxGeometry>
        </mxCell>
        <mxCell id="I3xKFYTj0F-n865Hq9HS-21" value="" style="endArrow=classic;html=1;rounded=0;entryX=0.5;entryY=0;entryDx=0;entryDy=0;" parent="1" target="I3xKFYTj0F-n865Hq9HS-19" edge="1">
          <mxGeometry width="50" height="50" relative="1" as="geometry">
            <mxPoint x="780" y="250" as="sourcePoint" />
            <mxPoint x="765" y="270" as="targetPoint" />
          </mxGeometry>
        </mxCell>
        <mxCell id="I3xKFYTj0F-n865Hq9HS-22" value="&lt;font style=&quot;font-size: 11px;&quot;&gt;req_pc_tag_cmp_w[18:0]&lt;/font&gt;" style="text;strokeColor=none;align=center;fillColor=none;html=1;verticalAlign=middle;whiteSpace=wrap;rounded=0;" parent="1" vertex="1">
          <mxGeometry x="625" y="237" width="130" height="10" as="geometry" />
        </mxCell>
        <mxCell id="I3xKFYTj0F-n865Hq9HS-23" value="" style="endArrow=classic;html=1;rounded=0;" parent="1" edge="1">
          <mxGeometry width="50" height="50" relative="1" as="geometry">
            <mxPoint x="795" y="142" as="sourcePoint" />
            <mxPoint x="840" y="240" as="targetPoint" />
            <Array as="points">
              <mxPoint x="820" y="142" />
              <mxPoint x="820" y="240" />
            </Array>
          </mxGeometry>
        </mxCell>
        <mxCell id="I3xKFYTj0F-n865Hq9HS-24" value="" style="endArrow=classic;html=1;rounded=0;exitX=1;exitY=0.5;exitDx=0;exitDy=0;" parent="1" source="I3xKFYTj0F-n865Hq9HS-19" edge="1">
          <mxGeometry width="50" height="50" relative="1" as="geometry">
            <mxPoint x="795" y="350" as="sourcePoint" />
            <mxPoint x="840" y="260" as="targetPoint" />
            <Array as="points">
              <mxPoint x="820" y="353" />
              <mxPoint x="820" y="260" />
            </Array>
          </mxGeometry>
        </mxCell>
        <mxCell id="I3xKFYTj0F-n865Hq9HS-25" value="" style="shape=xor;whiteSpace=wrap;html=1;" parent="1" vertex="1">
          <mxGeometry x="835" y="231.5" width="35" height="37" as="geometry" />
        </mxCell>
        <mxCell id="I3xKFYTj0F-n865Hq9HS-26" value="" style="endArrow=classic;html=1;rounded=0;exitX=1;exitY=0.5;exitDx=0;exitDy=0;exitPerimeter=0;endFill=1;entryX=0;entryY=0.5;entryDx=0;entryDy=0;" parent="1" source="I3xKFYTj0F-n865Hq9HS-25" target="I3xKFYTj0F-n865Hq9HS-42" edge="1">
          <mxGeometry width="50" height="50" relative="1" as="geometry">
            <mxPoint x="910" y="267" as="sourcePoint" />
            <mxPoint x="940" y="250" as="targetPoint" />
            <Array as="points">
              <mxPoint x="900" y="250" />
              <mxPoint x="900" y="390" />
              <mxPoint x="775" y="390" />
            </Array>
          </mxGeometry>
        </mxCell>
        <mxCell id="I3xKFYTj0F-n865Hq9HS-27" value="" style="endArrow=classic;html=1;rounded=0;entryX=0.002;entryY=0.38;entryDx=0;entryDy=0;entryPerimeter=0;" parent="1" target="I3xKFYTj0F-n865Hq9HS-28" edge="1">
          <mxGeometry width="50" height="50" relative="1" as="geometry">
            <mxPoint x="420" y="330" as="sourcePoint" />
            <mxPoint x="540" y="500" as="targetPoint" />
            <Array as="points">
              <mxPoint x="420" y="480" />
            </Array>
          </mxGeometry>
        </mxCell>
        <mxCell id="I3xKFYTj0F-n865Hq9HS-28" value="DATA&lt;br&gt;RAM0&lt;br&gt;64bit*1024" style="rounded=1;whiteSpace=wrap;html=1;" parent="1" vertex="1">
          <mxGeometry x="540" y="430" width="80" height="130" as="geometry" />
        </mxCell>
        <mxCell id="I3xKFYTj0F-n865Hq9HS-29" value="DATA&lt;br&gt;RAM1&lt;br&gt;64bit*1024" style="rounded=1;whiteSpace=wrap;html=1;" parent="1" vertex="1">
          <mxGeometry x="540" y="570" width="80" height="130" as="geometry" />
        </mxCell>
        <mxCell id="I3xKFYTj0F-n865Hq9HS-30" value="" style="endArrow=classic;html=1;rounded=0;entryX=0;entryY=0.382;entryDx=0;entryDy=0;entryPerimeter=0;" parent="1" target="I3xKFYTj0F-n865Hq9HS-29" edge="1">
          <mxGeometry width="50" height="50" relative="1" as="geometry">
            <mxPoint x="420" y="480" as="sourcePoint" />
            <mxPoint x="540" y="641" as="targetPoint" />
            <Array as="points">
              <mxPoint x="420" y="620" />
            </Array>
          </mxGeometry>
        </mxCell>
        <mxCell id="I3xKFYTj0F-n865Hq9HS-31" value="&lt;font style=&quot;font-size: 11px;&quot;&gt;data_addr_r[9:0]&lt;/font&gt;" style="text;strokeColor=none;align=center;fillColor=none;html=1;verticalAlign=middle;whiteSpace=wrap;rounded=0;" parent="1" vertex="1">
          <mxGeometry x="450" y="466" width="80" height="10" as="geometry" />
        </mxCell>
        <mxCell id="I3xKFYTj0F-n865Hq9HS-32" value="&lt;font style=&quot;font-size: 11px;&quot;&gt;data_addr_r[9:0]&lt;/font&gt;" style="text;strokeColor=none;align=center;fillColor=none;html=1;verticalAlign=middle;whiteSpace=wrap;rounded=0;" parent="1" vertex="1">
          <mxGeometry x="450" y="607" width="80" height="10" as="geometry" />
        </mxCell>
        <mxCell id="I3xKFYTj0F-n865Hq9HS-33" value="" style="endArrow=classic;html=1;rounded=0;entryX=0;entryY=0.5;entryDx=0;entryDy=0;" parent="1" edge="1">
          <mxGeometry width="50" height="50" relative="1" as="geometry">
            <mxPoint x="620" y="500" as="sourcePoint" />
            <mxPoint x="765" y="500" as="targetPoint" />
          </mxGeometry>
        </mxCell>
        <mxCell id="I3xKFYTj0F-n865Hq9HS-34" value="" style="endArrow=classic;html=1;rounded=0;entryX=0;entryY=0.5;entryDx=0;entryDy=0;" parent="1" edge="1">
          <mxGeometry width="50" height="50" relative="1" as="geometry">
            <mxPoint x="620" y="639.79" as="sourcePoint" />
            <mxPoint x="765" y="640" as="targetPoint" />
          </mxGeometry>
        </mxCell>
        <mxCell id="I3xKFYTj0F-n865Hq9HS-35" value="&lt;font style=&quot;font-size: 11px;&quot;&gt;tag0_addr_bits_w[18:0]&lt;/font&gt;" style="text;strokeColor=none;align=center;fillColor=none;html=1;verticalAlign=middle;whiteSpace=wrap;rounded=0;" parent="1" vertex="1">
          <mxGeometry x="631" y="487" width="110" height="10" as="geometry" />
        </mxCell>
        <mxCell id="I3xKFYTj0F-n865Hq9HS-36" value="&lt;font style=&quot;font-size: 11px;&quot;&gt;tag1_data_out_w[19:0]&lt;/font&gt;" style="text;strokeColor=none;align=center;fillColor=none;html=1;verticalAlign=middle;whiteSpace=wrap;rounded=0;" parent="1" vertex="1">
          <mxGeometry x="630" y="627" width="110" height="10" as="geometry" />
        </mxCell>
        <mxCell id="I3xKFYTj0F-n865Hq9HS-42" value="" style="shape=trapezoid;perimeter=trapezoidPerimeter;whiteSpace=wrap;html=1;fixedSize=1;rotation=90;" parent="1" vertex="1">
          <mxGeometry x="692.5" y="562.5" width="165" height="20" as="geometry" />
        </mxCell>
        <mxCell id="I3xKFYTj0F-n865Hq9HS-44" value="" style="endArrow=classic;html=1;rounded=0;strokeWidth=3;" parent="1" edge="1">
          <mxGeometry width="50" height="50" relative="1" as="geometry">
            <mxPoint x="785" y="570" as="sourcePoint" />
            <mxPoint x="890" y="570" as="targetPoint" />
          </mxGeometry>
        </mxCell>
        <mxCell id="I3xKFYTj0F-n865Hq9HS-46" value="&lt;font style=&quot;font-size: 11px;&quot;&gt;req_instr_o[63:0]&lt;/font&gt;" style="text;strokeColor=none;align=center;fillColor=none;html=1;verticalAlign=middle;whiteSpace=wrap;rounded=0;" parent="1" vertex="1">
          <mxGeometry x="795" y="556.5" width="82.5" height="10" as="geometry" />
        </mxCell>
        <mxCell id="I3xKFYTj0F-n865Hq9HS-50" value="" style="endArrow=classic;html=1;rounded=0;strokeWidth=3;" parent="1" edge="1">
          <mxGeometry width="50" height="50" relative="1" as="geometry">
            <mxPoint x="360" y="660" as="sourcePoint" />
            <mxPoint x="540" y="660" as="targetPoint" />
          </mxGeometry>
        </mxCell>
        <mxCell id="I3xKFYTj0F-n865Hq9HS-52" value="" style="shape=sumEllipse;perimeter=ellipsePerimeter;whiteSpace=wrap;html=1;backgroundOutline=1;" parent="1" vertex="1">
          <mxGeometry x="340" y="650" width="20" height="20" as="geometry" />
        </mxCell>
        <mxCell id="I3xKFYTj0F-n865Hq9HS-53" value="&lt;font style=&quot;font-size: 11px;&quot;&gt;{axi_rdata, refill_lower_q}[63:0]&lt;/font&gt;" style="text;strokeColor=none;align=center;fillColor=none;html=1;verticalAlign=middle;whiteSpace=wrap;rounded=0;" parent="1" vertex="1">
          <mxGeometry x="368" y="647" width="160" height="10" as="geometry" />
        </mxCell>
        <mxCell id="I3xKFYTj0F-n865Hq9HS-55" value="" style="endArrow=classic;html=1;rounded=0;strokeWidth=2;" parent="1" edge="1">
          <mxGeometry width="50" height="50" relative="1" as="geometry">
            <mxPoint x="70" y="660" as="sourcePoint" />
            <mxPoint x="200" y="659.8" as="targetPoint" />
            <Array as="points">
              <mxPoint x="170" y="659.8" />
            </Array>
          </mxGeometry>
        </mxCell>
        <mxCell id="I3xKFYTj0F-n865Hq9HS-57" value="D" style="rounded=1;whiteSpace=wrap;html=1;" parent="1" vertex="1">
          <mxGeometry x="200" y="636" width="30" height="50" as="geometry" />
        </mxCell>
        <mxCell id="I3xKFYTj0F-n865Hq9HS-58" value="" style="endArrow=classic;html=1;rounded=0;strokeWidth=2;" parent="1" edge="1">
          <mxGeometry width="50" height="50" relative="1" as="geometry">
            <mxPoint x="230" y="660" as="sourcePoint" />
            <mxPoint x="340" y="659.92" as="targetPoint" />
            <Array as="points" />
          </mxGeometry>
        </mxCell>
        <mxCell id="I3xKFYTj0F-n865Hq9HS-59" value="&lt;font style=&quot;font-size: 11px;&quot;&gt;refill_lower_q[31:0]&lt;/font&gt;" style="text;strokeColor=none;align=center;fillColor=none;html=1;verticalAlign=middle;whiteSpace=wrap;rounded=0;" parent="1" vertex="1">
          <mxGeometry x="237" y="647" width="90" height="10" as="geometry" />
        </mxCell>
        <mxCell id="I3xKFYTj0F-n865Hq9HS-60" value="&lt;font style=&quot;font-size: 11px;&quot;&gt;axi_rdata_i[31:0]&lt;/font&gt;" style="text;strokeColor=none;align=center;fillColor=none;html=1;verticalAlign=middle;whiteSpace=wrap;rounded=0;" parent="1" vertex="1">
          <mxGeometry x="100" y="647" width="90" height="10" as="geometry" />
        </mxCell>
        <mxCell id="I3xKFYTj0F-n865Hq9HS-61" value="" style="endArrow=classic;html=1;rounded=0;entryX=0.5;entryY=1;entryDx=0;entryDy=0;strokeWidth=2;" parent="1" target="I3xKFYTj0F-n865Hq9HS-52" edge="1">
          <mxGeometry width="50" height="50" relative="1" as="geometry">
            <mxPoint x="160" y="660" as="sourcePoint" />
            <mxPoint x="320" y="690" as="targetPoint" />
            <Array as="points">
              <mxPoint x="160" y="700" />
              <mxPoint x="350" y="700" />
            </Array>
          </mxGeometry>
        </mxCell>
        <mxCell id="I3xKFYTj0F-n865Hq9HS-62" value="" style="endArrow=classic;html=1;rounded=0;entryX=0.002;entryY=0.695;entryDx=0;entryDy=0;entryPerimeter=0;strokeWidth=3;" parent="1" target="I3xKFYTj0F-n865Hq9HS-28" edge="1">
          <mxGeometry width="50" height="50" relative="1" as="geometry">
            <mxPoint x="370" y="660" as="sourcePoint" />
            <mxPoint x="530" y="520" as="targetPoint" />
            <Array as="points">
              <mxPoint x="370" y="520" />
            </Array>
          </mxGeometry>
        </mxCell>
        <mxCell id="I3xKFYTj0F-n865Hq9HS-63" value="&lt;font style=&quot;font-size: 11px;&quot;&gt;req_pc_i[31:0]&lt;/font&gt;" style="text;strokeColor=none;align=center;fillColor=none;html=1;verticalAlign=middle;whiteSpace=wrap;rounded=0;" parent="1" vertex="1">
          <mxGeometry x="70" y="237" width="80" height="10" as="geometry" />
        </mxCell>
        <mxCell id="I3xKFYTj0F-n865Hq9HS-65" value="" style="endArrow=classic;html=1;rounded=0;entryX=0;entryY=0.4;entryDx=0;entryDy=0;entryPerimeter=0;" parent="1" target="I3xKFYTj0F-n865Hq9HS-66" edge="1">
          <mxGeometry width="50" height="50" relative="1" as="geometry">
            <mxPoint x="160" y="250" as="sourcePoint" />
            <mxPoint x="220" y="300" as="targetPoint" />
            <Array as="points">
              <mxPoint x="160" y="300" />
            </Array>
          </mxGeometry>
        </mxCell>
        <mxCell id="I3xKFYTj0F-n865Hq9HS-66" value="D" style="rounded=1;whiteSpace=wrap;html=1;" parent="1" vertex="1">
          <mxGeometry x="260" y="280" width="30" height="50" as="geometry" />
        </mxCell>
        <mxCell id="I3xKFYTj0F-n865Hq9HS-67" value="&lt;font style=&quot;font-size: 11px;&quot;&gt;req_pc_i[31:13]&lt;/font&gt;" style="text;strokeColor=none;align=center;fillColor=none;html=1;verticalAlign=middle;whiteSpace=wrap;rounded=0;" parent="1" vertex="1">
          <mxGeometry x="170" y="287" width="80" height="10" as="geometry" />
        </mxCell>
        <mxCell id="I3xKFYTj0F-n865Hq9HS-68" value="" style="endArrow=classic;html=1;rounded=0;entryX=-0.003;entryY=0.69;entryDx=0;entryDy=0;entryPerimeter=0;exitX=0.999;exitY=0.404;exitDx=0;exitDy=0;exitPerimeter=0;" parent="1" source="I3xKFYTj0F-n865Hq9HS-66" target="I3xKFYTj0F-n865Hq9HS-13" edge="1">
          <mxGeometry width="50" height="50" relative="1" as="geometry">
            <mxPoint x="290.72" y="303.5" as="sourcePoint" />
            <mxPoint x="540" y="384.24" as="targetPoint" />
            <Array as="points">
              <mxPoint x="370" y="300" />
              <mxPoint x="370" y="380" />
            </Array>
          </mxGeometry>
        </mxCell>
        <mxCell id="I3xKFYTj0F-n865Hq9HS-69" value="&lt;span style=&quot;font-size: 11px;&quot;&gt;tag_data_in_r[19:0]&lt;/span&gt;" style="text;strokeColor=none;align=center;fillColor=none;html=1;verticalAlign=middle;whiteSpace=wrap;rounded=0;" parent="1" vertex="1">
          <mxGeometry x="442" y="367" width="80" height="10" as="geometry" />
        </mxCell>
        <mxCell id="I3xKFYTj0F-n865Hq9HS-70" value="" style="endArrow=classic;html=1;rounded=0;entryX=0;entryY=0.698;entryDx=0;entryDy=0;entryPerimeter=0;" parent="1" target="I3xKFYTj0F-n865Hq9HS-9" edge="1">
          <mxGeometry width="50" height="50" relative="1" as="geometry">
            <mxPoint x="370" y="300" as="sourcePoint" />
            <mxPoint x="422" y="260" as="targetPoint" />
            <Array as="points">
              <mxPoint x="370" y="170" />
            </Array>
          </mxGeometry>
        </mxCell>
        <mxCell id="I3xKFYTj0F-n865Hq9HS-71" value="&lt;span style=&quot;font-size: 11px;&quot;&gt;tag_data_in_r[19:0]&lt;/span&gt;" style="text;strokeColor=none;align=center;fillColor=none;html=1;verticalAlign=middle;whiteSpace=wrap;rounded=0;" parent="1" vertex="1">
          <mxGeometry x="442" y="157" width="80" height="10" as="geometry" />
        </mxCell>
      </root>
    </mxGraphModel>
  </diagram>
</mxfile>
